PathFileType	4	(X/Y/Z)	c:/Users/goper/Files/vsCode/490R/osim_files/C08/C08_Slow_06.trc
DataRate	CameraRate	NumFrames	NumMarkers	Units                	OrigDataRate	OrigDataStartFrame	OrigNumFrames
250.00	250.00	7	36	mm	250.0	985	2626
                Frame#	Time	LPSIS			LASIS			LTH1			LTH2			LTH3			LTH4			LLFE			LMFE			LSH1			LSH2			LSH3			LSH4			LLMAL			LMMAL			LCAL			LMTP5			LTOE			LMTP1			RPSIS			RASIS			RTH1			RTH2			RTH3			RTH4			RLFE			RMFE			RSH1			RSH2			RSH3			RSH4			RLMAL			RMMAL			RCAL			RMTP1			RTOE			RMTP5		
		X1	Y1	Z1	X2	Y2	Z2	X3	Y3	Z3	X4	Y4	Z4	X5	Y5	Z5	X6	Y6	Z6	X7	Y7	Z7	X8	Y8	Z8	X9	Y9	Z9	X10	Y10	Z10	X11	Y11	Z11	X12	Y12	Z12	X13	Y13	Z13	X14	Y14	Z14	X15	Y15	Z15	X16	Y16	Z16	X17	Y17	Z17	X18	Y18	Z18	X19	Y19	Z19	X20	Y20	Z20	X21	Y21	Z21	X22	Y22	Z22	X23	Y23	Z23	X24	Y24	Z24	X25	Y25	Z25	X26	Y26	Z26	X27	Y27	Z27	X28	Y28	Z28	X29	Y29	Z29	X30	Y30	Z30	X31	Y31	Z31	X32	Y32	Z32	X33	Y33	Z33	X34	Y34	Z34	X35	Y35	Z35	X36	Y36	Z36

985	3.93600	1599.51379	1046.47986	177.39731	1398.26379	1001.78223	275.16669	1540.68030	734.76819	328.53796	1553.16797	658.59827	302.65988	1569.13220	589.69293	292.74490	0.00000	0.00000	0.00000	0.00000	0.00000	0.00000	1568.12744	533.50592	153.13033	1665.96582	426.80807	279.46127	1670.45264	379.91940	277.57047	1606.66260	417.35187	285.53387	1621.68604	374.27673	282.46497	1718.08923	111.20085	210.07011	1687.86707	121.75003	123.67776	1779.32629	90.18214	147.16457	1609.22546	48.05727	245.18491	1538.81738	64.45787	191.96510	0.00000	0.00000	0.00000	1595.52979	1041.16235	117.78927	1401.35217	1007.33917	36.27976	1397.68481	743.22919	-34.42526	1370.87805	669.57220	-16.77135	1350.25842	595.87592	-9.45224	1301.16162	697.62122	9.85916	1312.27905	536.09052	15.11327	0.00000	0.00000	0.00000	1337.35828	442.17368	-1.26248	1317.60376	402.20807	-6.66676	1281.55725	464.37527	3.70375	1267.21826	420.46826	-0.07662	1210.39917	116.28304	47.42241	1184.03992	133.35742	134.43469	1256.85168	74.47615	116.47070	1046.14490	117.78029	119.86608	1039.51794	140.67059	64.88326	1077.22205	96.93570	7.33091
986	3.94000	1595.55554	1045.99268	177.22708	1394.25732	1001.33582	275.34576	1537.31836	734.52576	328.59991	1549.91492	658.39459	302.64456	1566.64355	589.45654	293.50729	0.00000	0.00000	0.00000	0.00000	0.00000	0.00000	1564.97864	533.20972	153.25534	1663.74207	427.22107	279.46429	1668.46533	380.31369	277.53345	1604.39587	417.29382	285.50531	1619.87976	374.45422	282.59171	1717.54517	111.73457	210.06171	1687.34521	122.19662	123.67068	1778.97925	91.01531	147.16847	1609.17578	48.04967	245.19685	1538.63892	64.27978	192.00446	0.00000	0.00000	0.00000	1591.39587	1040.57324	117.64413	1397.14697	1006.78687	36.43496	1393.79297	742.61066	-34.33356	1367.19470	668.92621	-16.51429	1346.91687	595.20233	-9.05111	1297.50647	696.52698	10.21464	1309.36975	535.60327	15.69648	1308.09961	526.76440	150.75029	1333.66040	441.21048	-0.48842	1313.73108	401.38187	-5.87361	1277.94678	463.71307	4.16543	1263.79358	420.08533	0.05666	1204.47095	116.14664	48.26172	1177.88550	133.73314	135.39665	1250.86023	74.77551	120.20321	1039.60974	119.38779	120.76392	1033.72876	141.90392	65.44809	1071.13635	97.61709	8.12636
987	3.94400	1591.55603	1045.44971	177.04823	1390.28430	1000.88293	275.47644	1533.73669	734.18237	328.59753	1546.56299	658.09851	302.67276	1563.83447	589.73682	293.43234	0.00000	0.00000	0.00000	0.00000	0.00000	0.00000	1561.93384	533.01831	153.31345	1661.24597	427.40720	279.38351	1667.25183	381.18961	277.90634	1602.07678	417.22153	285.52417	1618.02637	374.58490	282.72064	1716.97986	112.28296	210.08075	1686.85071	122.64358	123.68076	1778.56396	91.82909	147.20518	1609.05383	48.02092	245.21033	1538.40588	64.06047	192.02165	0.00000	0.00000	0.00000	1587.26318	1039.95996	117.50883	1392.81958	1006.39136	36.61761	1389.85254	742.02734	-34.17901	1363.42542	668.35626	-16.19205	1343.32605	594.51147	-8.57763	1292.61536	694.66602	11.80203	1305.60706	534.76636	15.59157	0.00000	0.00000	0.00000	1329.91138	440.34540	0.19971	1309.78088	400.55981	-5.10463	1274.23584	463.06979	4.58458	1259.95020	419.39679	0.60375	1199.01917	115.95370	49.40497	1171.81860	133.97266	136.45239	1244.87683	74.42211	121.66415	1033.82568	120.27139	121.28297	1028.19324	142.68179	65.96240	1065.66907	98.02459	8.89957
988	3.94800	1587.54480	1044.94299	176.88187	1386.21594	1000.37427	275.61713	1530.23547	733.92853	328.63498	1543.23376	657.94012	302.75473	1559.80212	588.74512	293.16248	0.00000	0.00000	0.00000	0.00000	0.00000	0.00000	1558.70459	532.72534	153.40038	1658.87390	427.80917	279.36243	1665.29211	381.68988	277.92963	1599.78564	417.21088	285.53046	1615.63477	374.38727	282.50943	1716.18103	112.46269	210.22253	1685.20886	122.79319	124.02438	1778.09656	92.66180	147.23517	1608.93762	47.99362	245.21838	1538.16821	63.82181	192.06862	0.00000	0.00000	0.00000	1583.09875	1039.33215	117.38459	1388.34375	1005.98444	36.76419	1385.89355	741.53119	-33.97989	1359.50342	667.79156	-15.73325	1338.10559	593.13208	-7.58591	1288.59973	694.06104	11.88298	1302.04163	534.19434	16.47595	1300.02271	524.99200	150.05922	1325.98242	439.59149	0.86904	1305.88293	399.85693	-4.33417	1270.33606	462.38821	5.06510	1256.13806	419.10736	0.89668	1194.00964	115.53606	50.61782	1167.70203	134.43643	137.65312	1239.34473	73.97369	123.24290	1029.44141	120.75188	121.79830	1023.49329	143.22414	66.48442	1060.27075	97.83109	10.16203
989	3.95200	1583.52173	1044.45374	176.72298	1382.19849	999.97668	275.77588	1526.65332	733.66998	328.63205	1539.79932	657.71881	302.75146	1557.18225	588.91077	293.64728	0.00000	0.00000	0.00000	0.00000	0.00000	0.00000	1555.50635	532.57715	153.48616	1656.45447	428.19623	279.40958	1663.19849	382.10345	277.97821	1597.51599	417.16342	285.32443	1613.71167	374.64478	282.66592	1715.53772	113.02024	209.94946	1685.71655	123.68255	123.79250	1777.71350	93.64839	147.32298	1608.82837	47.94386	245.22699	1537.96252	63.58361	192.11398	0.00000	0.00000	0.00000	1578.94336	1038.74451	117.23673	1384.17212	1005.54828	36.84689	1381.82593	741.05560	-33.72968	1355.55261	667.36755	-15.27571	1334.35669	592.69666	-7.09803	1284.50110	693.60175	12.09047	1298.13330	533.70166	16.89890	1295.78223	524.06659	149.57747	1322.04480	438.97217	1.64913	1301.81934	399.17596	-3.57817	1266.40564	461.77832	5.51905	1252.04675	418.17523	1.64034	1189.67871	115.10261	51.76863	1163.05310	134.41632	138.65804	0.00000	0.00000	0.00000	1024.02393	121.31020	122.59073	1019.05969	143.19501	66.95663	1056.18030	97.62119	10.78074
990	3.95600	1579.42078	1043.93079	176.55074	1378.06873	999.49475	275.83636	1522.99707	733.43243	328.63562	1536.26404	657.41980	302.75095	1553.89185	588.73578	293.70169	0.00000	0.00000	0.00000	0.00000	0.00000	0.00000	1552.14294	532.27631	153.62746	1653.86426	428.50967	279.33218	1661.16284	382.59036	278.02261	1594.94678	417.10229	285.62256	1611.51025	374.64008	282.66425	1715.30078	114.07817	210.29941	1685.16809	124.13949	123.74184	1777.23535	94.57876	147.41081	1608.70410	47.90037	245.24576	1537.69653	63.57916	191.91360	0.00000	0.00000	0.00000	1574.73474	1038.15417	117.11492	1379.93225	1005.12842	36.86476	1377.67493	740.64789	-33.50281	1351.41443	666.96851	-14.83658	1330.34680	592.31866	-6.53732	1280.33936	693.27252	12.36106	1293.86292	533.17578	16.81173	1291.45471	523.09375	149.02151	1320.89075	440.20807	2.17947	1297.78772	398.56497	-2.87641	1262.35291	461.21103	5.98071	1248.02136	417.59708	2.25594	1185.78687	114.44179	52.86626	1158.17236	133.70908	139.46675	1230.67615	73.23763	126.16334	1019.98700	121.04220	123.07153	1015.16418	142.78319	67.46456	1052.41943	96.93355	11.59719
991	3.96000	1573.92920	1042.89990	176.39149	1374.02600	999.01715	275.95319	1519.39612	733.21429	328.67828	1532.76538	657.25269	302.82889	1550.55566	588.55133	293.75174	0.00000	0.00000	0.00000	0.00000	0.00000	0.00000	1548.81140	532.08661	153.71794	1651.26819	428.85968	279.33664	1659.09033	383.14587	278.13998	1592.43848	417.08884	285.65979	1609.36755	374.76041	282.79010	1714.90503	115.05145	210.05341	1685.20837	124.84811	124.54522	1776.82495	95.62691	147.57320	1608.60498	47.85812	245.29909	1537.51599	63.32977	191.95581	0.00000	0.00000	0.00000	1570.50232	1037.56787	117.00517	1375.74280	1004.59650	36.91499	1373.45398	740.28558	-33.22077	1347.23108	666.61487	-14.38277	1326.15039	591.96729	-5.93813	1276.13257	693.04346	12.67377	1289.60925	532.78131	17.28796	0.00000	0.00000	0.00000	1314.65222	438.53458	3.48998	1293.79138	398.11142	-2.21884	1258.16370	460.62674	6.46239	1243.94055	416.95596	2.81249	1182.48328	113.69420	54.05514	1154.58984	133.19972	140.42966	1227.07202	72.64146	127.62427	1016.48029	120.55186	123.80653	1011.78094	141.98228	67.99053	1049.20203	95.95454	12.41794
